# xmcd
#
# Track frame offsets: 
#        150
#        35328
#        58657
#        85355
#        113106
#        139017
#        164805
#        195938
#        225718
#        253159
#        292527
#
# Disc length: 4322 seconds
#
# Revision: 2
# Processed by: cddbd v1.5.2PL0 Copyright (c) Steve Scherf et al.
# Submitted via: ExactAudioCopy v0.99pb2
#
DISCID=9310e00b
DTITLE=Various Artist - GU028 Shanghai Mixed by Nick Warren
DYEAR=2005
DGENRE=House
TTITLE0=SJ Esau - Fat Cat
TTITLE1=Jacob Todd and Kelly Noland - Somehow (Aural Imbalance Remix)
TTITLE2=Alex Stealthy - Once (Sunseeker Remix)
TTITLE3=Way Out West - Don't Forget Me (Clifton High Instrumental Mix)
TTITLE4=Tini Tun - Over It
TTITLE5=Starecase - Vapour Trails
TTITLE6=Seyton - The Drake Equation
TTITLE7=Bcml - Horowitz
TTITLE8=Starecase - Sunshine
TTITLE9=Yvel and Tristan - Pillow (Quasar Remix)
TTITLE10=Lustral - Solace (Gardner and Star Mix)
EXTD=
EXTT0=
EXTT1=
EXTT2=
EXTT3=
EXTT4=
EXTT5=
EXTT6=
EXTT7=
EXTT8=
EXTT9=
EXTT10=
PLAYORDER=
